{"title":"Conan.the.Barbarian.2011.CAM.Xvid-SiC","uid":6620608,"size":1078801728,"categoryP":"video","categoryS":"movies","magnet":"?xt=urn:btih:7732bd26b4ff596407a70872395f7811613a69d7&amp;dn=Conan.the.Barbarian.2011.CAM.Xvid-SiC&amp;tr=udp%3A%2F%2Ftracker.openbittorrent.com%3A80&amp;tr=udp%3A%2F%2Fopen.demonii.com%3A1337&amp;tr=udp%3A%2F%2Ftracker.coppersurfer.tk%3A6969&amp;tr=udp%3A%2F%2Fexodus.desync.com%3A6969","seeders":0,"leechers":1,"uploader":"sceneline","files":5,"time":1313975796,"description":"- &lt;a href=&quot;\nhttp://www.Speed.Cd&quot; rel=&quot;nofollow&quot; target=&quot;_NEW&quot;&gt;\nhttp://www.Speed.Cd&lt;/a&gt; \n       &lt;a href=&quot;\nhttp://www.Speed.Cd&quot; rel=&quot;nofollow&quot; target=&quot;_NEW&quot;&gt;\nhttp://www.Speed.Cd&lt;/a&gt;      fast  and The Hottest Private Tracker on the net\n\n(((--Submit for invite!!--)))\n\nPlease Seed back to make the speed Faster!!!\n\n------------------nfo--------------------------\n-\n\n\n\n\n\n\n\n\n\n\n\n\n\n\n\n\n\n\n\n\n\n\n\n\n\n\n\n\n\n\n\n\n\n\n\n\n\n\n\n\n          \n          \n              \n              \n                    \n                    \n                    \n                    \n\nConan.the.Barbarian.2011.CAM.Xvid-SiC\n\nPoster:\n[img]http://img62.imageshack.us/img62/161/mv5bmtq1nduyodk5nf5bml5.jpg[/img]\n\nIMDB Link:\nhttp://www.imdb.com/title/tt0816462/\n\nDescription:\nThe tale of Conan the Cimmerian and his adventures across the continent of\nHyboria on a quest to avenge the murder of his father and the slaughter \nof his village. \n\nMediaInfo:\nGeneral\nComplete name                    : Conan.the.Barbarian.2011.CAM.Xvid-SiC.avi\nFormat                           : AVI\nFormat/Info                      : Audio Video Interleave\nFile size                        : 1 018 MiB\nDuration                         : 1h 39mn\nOverall bit rate                 : 1 429 Kbps\n\nVideo\nID                               : 0\nFormat                           : MPEG-4 Visual\nFormat profile                   : Advanced Simple@L5\nFormat settings, BVOP            : Yes\nFormat settings, QPel            : No\nFormat settings, GMC             : No warppoints\nFormat settings, Matrix          : Default (H.263)\nMuxing mode                      : Packed bitstream\nCodec ID                         : XVID\nCodec ID/Hint                    : XviD\nDuration                         : 1h 39mn\nBit rate                         : 1 295 Kbps\nWidth                            : 720 pixels\nHeight                           : 336 pixels\nDisplay aspect ratio             : 2.2:1\nFrame rate                       : 25.000 fps\nResolution                       : 8 bits\nColorimetry                      : 4:2:0\nScan type                        : Progressive\nBits/(Pixel*Frame)               : 0.214\nStream size                      : 922 MiB (91%)\nWriting library                  : XviD 64\n\nAudio\nID                               : 1\nFormat                           : MPEG Audio\nFormat version                   : Version 1\nFormat profile                   : Layer 3\nMode                             : Joint stereo\nFormat_Settings_ModeExtension    : MS Stereo\nCodec ID                         : 55\nCodec ID/Hint                    : MP3\nDuration                         : 1h 39mn\nBit rate mode                    : Constant\nBit rate                         : 128 Kbps\nChannel(s)                       : 2 channels\nSampling rate                    : 44.1 KHz\nStream size                      : 91.1 MiB (9%)\nAlignment                        : Aligned on interleaves\nInterleave, duration             : 160 ms (4.00 video frames)\nInterleave, preload duration     : 208 ms\nTitle                            : 2ch English\nWriting library                  : LAME3.98r\nEncoding settings                : -m j -V 4 -q 2 -lowpass 17\nNote :   \n\nSource : CAM-RelizLab Thanks!!!\nAudio Source : IMAGiNE Thanks!!!\n\nEncoder: Bezauk\n\nEnjoy!\n\nRespects to CaptainHomey, Cyanide, CM8, Rx, THC, ELEKTRI4KA, \nKillerhz, PA, YeFsTe, BoxSlots, MrRep and everyone in the struggle...","torrent":{"xt":"urn:btih:7732bd26b4ff596407a70872395f7811613a69d7","amp;dn":"Conan.the.Barbarian.2011.CAM.Xvid-SiC","amp;tr":["udp%3A%2F%2Ftracker.openbittorrent.com%3A80","udp%3A%2F%2Fopen.demonii.com%3A1337","udp%3A%2F%2Ftracker.coppersurfer.tk%3A6969","udp%3A%2F%2Fexodus.desync.com%3A6969"],"infoHash":"7732bd26b4ff596407a70872395f7811613a69d7","infoHashBuffer":{"type":"Buffer","data":[119,50,189,38,180,255,89,100,7,167,8,114,57,95,120,17,97,58,105,215]},"announce":[],"urlList":[]}}